<svg xmlns="http://www.w3.org/2000/svg" xmlns:xlink="http://www.w3.org/1999/xlink" width="6912" zoomAndPan="magnify" viewBox="0 0 5184 2592.000001" height="3456" preserveAspectRatio="xMidYMid meet" version="1.0"><defs><g/><clipPath id="03207ed0db"><path d="M 275.453125 565.230469 L 2178.21875 565.230469 L 2178.21875 2025.664062 L 275.453125 2025.664062 Z M 275.453125 565.230469 " clip-rule="nonzero"/></clipPath></defs><g clip-path="url(#03207ed0db)"><path fill="#867eff" d="M 1226.746094 984.136719 C 1005.015625 984.136719 824.984375 1164.5625 824.984375 1385.902344 C 824.984375 1607.242188 1005.015625 1787.664062 1226.746094 1787.664062 C 1448.476562 1787.664062 1628.507812 1607.242188 1628.507812 1385.902344 C 1628.507812 1164.5625 1448.476562 984.136719 1226.746094 984.136719 Z M 1226.746094 1651.273438 C 1080.226562 1651.273438 961.371094 1532.03125 961.371094 1385.902344 C 961.371094 1239.769531 1080.617188 1120.527344 1226.746094 1120.527344 C 1372.878906 1120.527344 1492.121094 1239.769531 1492.121094 1385.902344 C 1492.121094 1532.03125 1373.265625 1651.273438 1226.746094 1651.273438 Z M 1829.976562 1005.179688 C 1768.40625 1005.179688 1718.914062 1055.058594 1718.914062 1116.242188 C 1718.914062 1177.421875 1768.792969 1227.300781 1829.976562 1227.300781 C 1891.542969 1227.300781 1941.035156 1177.421875 1941.035156 1116.242188 C 1941.035156 1055.058594 1891.15625 1005.179688 1829.976562 1005.179688 Z M 1992.082031 779.164062 L 1795.292969 779.164062 C 1779.707031 779.164062 1767.234375 766.695312 1767.234375 751.109375 C 1767.234375 648.621094 1683.84375 565.230469 1581.359375 565.230469 L 872.136719 565.230469 C 769.648438 565.230469 686.257812 648.621094 686.257812 751.109375 C 686.257812 766.695312 673.785156 779.164062 658.199219 779.164062 L 461.410156 779.164062 C 358.921875 779.164062 275.53125 862.558594 275.53125 965.042969 L 275.53125 1839.882812 C 275.53125 1942.367188 358.921875 2025.757812 461.410156 2025.757812 L 1992.472656 2025.757812 C 2094.960938 2025.757812 2178.351562 1942.367188 2178.351562 1839.882812 L 2178.351562 965.042969 C 2177.960938 862.558594 2094.570312 779.164062 1992.082031 779.164062 Z M 2041.574219 1839.882812 C 2041.574219 1867.160156 2019.359375 1889.371094 1992.082031 1889.371094 L 461.410156 1889.371094 C 434.132812 1889.371094 411.921875 1867.160156 411.921875 1839.882812 L 411.921875 965.042969 C 411.921875 937.765625 434.132812 915.554688 461.410156 915.554688 L 658.199219 915.554688 C 748.996094 915.554688 822.644531 841.902344 822.644531 751.109375 C 822.644531 723.832031 844.859375 701.617188 872.136719 701.617188 L 1581.359375 701.617188 C 1608.636719 701.617188 1630.847656 723.832031 1630.847656 751.109375 C 1630.847656 841.902344 1704.496094 915.554688 1795.292969 915.554688 L 1992.082031 915.554688 C 2019.359375 915.554688 2041.574219 937.765625 2041.574219 965.042969 Z M 2041.574219 1839.882812 " fill-opacity="1" fill-rule="nonzero"/></g><g fill="#fffff0" fill-opacity="1"><g transform="translate(2480.80677, 1221.276598)"><g><path d="M 261.511719 -255.042969 L 261.511719 -601.570312 L 27.722656 -601.570312 L 27.722656 -0.925781 L 401.046875 -0.925781 L 401.046875 -252.269531 C 357.617188 -252.269531 194.054688 -261.511719 195.902344 -128.445312 C 196.828125 -77.621094 220.851562 -47.128906 252.269531 -29.570312 L 248.574219 -19.40625 C 165.410156 -30.496094 140.457031 -80.394531 140.457031 -132.140625 C 138.609375 -208.839844 189.433594 -249.5 261.511719 -255.042969 Z M 261.511719 -255.042969 "/></g></g></g><g fill="#fffff0" fill-opacity="1"><g transform="translate(2900.334308, 1221.276598)"><g><path d="M 521.175781 -340.980469 L 522.101562 -601.570312 L 184.8125 -601.570312 C 0 -601.570312 -28.644531 -355.765625 139.535156 -304.019531 C -33.265625 -252.269531 -24.027344 -0.925781 184.8125 -0.925781 L 521.175781 -0.925781 L 522.101562 -263.359375 C 475.898438 -263.359375 313.261719 -272.601562 315.109375 -132.140625 C 315.109375 -85.015625 334.515625 -54.519531 362.234375 -35.113281 L 357.617188 -24.949219 C 292.007812 -39.734375 250.421875 -108.117188 251.347656 -173.726562 C 253.195312 -250.421875 321.578125 -292.929688 398.273438 -294.777344 L 398.273438 -313.261719 C 304.019531 -316.03125 249.5 -393.652344 254.121094 -464.808594 C 256.890625 -518.402344 296.625 -567.378906 356.691406 -577.542969 L 361.3125 -567.378906 C 333.589844 -547.972656 314.183594 -517.480469 315.109375 -470.351562 C 316.957031 -313.261719 521.175781 -340.980469 521.175781 -340.980469 Z M 521.175781 -340.980469 "/></g></g></g><g fill="#fffff0" fill-opacity="1"><g transform="translate(3440.914961, 1221.276598)"><g><path d="M 253.195312 0 L 253.195312 -296.625 C 253.195312 -381.640625 358.539062 -380.71875 358.539062 -294.777344 L 358.539062 0 L 584.011719 0 L 584.011719 -378.867188 C 584.011719 -496.226562 559.0625 -600.644531 423.222656 -603.417969 C 304.019531 -606.191406 267.054688 -496.226562 265.207031 -389.957031 L 253.195312 -389.957031 L 253.195312 -600.644531 L 23.101562 -600.644531 L 23.101562 0 Z M 253.195312 0 "/></g></g></g><g fill="#fffff0" fill-opacity="1"><g transform="translate(4050.800793, 1221.276598)"><g><path d="M 223.625 -601.570312 C 125.671875 -601.570312 17.558594 -587.710938 12.011719 -462.960938 C 2.773438 -270.753906 304.945312 -309.5625 315.109375 -123.824219 C 312.335938 -41.582031 255.96875 -25.875 184.8125 -24.027344 L 182.042969 -34.191406 C 215.308594 -52.671875 237.484375 -78.546875 236.5625 -132.140625 C 234.714844 -289.234375 25.875 -261.511719 25.875 -261.511719 L 26.796875 -0.925781 L 373.324219 -0.925781 C 482.363281 -0.925781 527.644531 -68.382812 538.734375 -134.914062 C 551.671875 -212.535156 511.933594 -269.828125 426.921875 -316.957031 C 364.082031 -352.070312 247.652344 -396.425781 250.421875 -484.214844 C 252.269531 -560.910156 326.195312 -584.9375 392.730469 -581.242188 L 394.578125 -571.074219 C 362.234375 -553.519531 337.285156 -530.417969 338.210938 -477.746094 C 340.058594 -328.96875 537.808594 -355.765625 537.808594 -355.765625 L 536.886719 -601.570312 Z M 223.625 -601.570312 "/></g></g></g><g fill="#fffff0" fill-opacity="1"><g transform="translate(2394.402609, 1946.246873)"><g><path d="M 261.511719 -255.042969 L 261.511719 -601.570312 L 27.722656 -601.570312 L 27.722656 -0.925781 L 401.046875 -0.925781 L 401.046875 -252.269531 C 357.617188 -252.269531 194.054688 -261.511719 195.902344 -128.445312 C 196.828125 -77.621094 220.851562 -47.128906 252.269531 -29.570312 L 248.574219 -19.40625 C 165.410156 -30.496094 140.457031 -80.394531 140.457031 -132.140625 C 138.609375 -208.839844 189.433594 -249.5 261.511719 -255.042969 Z M 261.511719 -255.042969 "/></g></g></g><g fill="#fffff0" fill-opacity="1"><g transform="translate(2817.626438, 1946.246873)"><g><path d="M 321.578125 -614.507812 C 147.851562 -614.507812 7.390625 -474.046875 7.390625 -301.246094 C 7.390625 -128.445312 147.851562 12.9375 321.578125 12.9375 C 494.378906 12.9375 634.835938 -128.445312 634.835938 -301.246094 C 634.835938 -474.046875 494.378906 -614.507812 321.578125 -614.507812 Z M 305.867188 -352.070312 C 342.832031 -352.070312 373.324219 -321.578125 373.324219 -284.613281 C 373.324219 -246.726562 342.832031 -217.15625 305.867188 -217.15625 C 95.179688 -217.15625 74.851562 -524.871094 252.269531 -579.390625 L 252.269531 -324.347656 C 264.285156 -341.90625 284.613281 -352.070312 305.867188 -352.070312 Z M 305.867188 -352.070312 "/></g></g></g><g fill="#fffff0" fill-opacity="1"><g transform="translate(3465.399066, 1946.246873)"><g><path d="M 321.578125 -614.507812 C 147.851562 -614.507812 7.390625 -474.046875 7.390625 -301.246094 C 7.390625 -128.445312 147.851562 12.9375 321.578125 12.9375 C 494.378906 12.9375 634.835938 -128.445312 634.835938 -301.246094 C 634.835938 -474.046875 494.378906 -614.507812 321.578125 -614.507812 Z M 305.867188 -352.070312 C 342.832031 -352.070312 373.324219 -321.578125 373.324219 -284.613281 C 373.324219 -246.726562 342.832031 -217.15625 305.867188 -217.15625 C 95.179688 -217.15625 74.851562 -524.871094 252.269531 -579.390625 L 252.269531 -324.347656 C 264.285156 -341.90625 284.613281 -352.070312 305.867188 -352.070312 Z M 305.867188 -352.070312 "/></g></g></g><g fill="#fffff0" fill-opacity="1"><g transform="translate(4113.17174, 1946.246873)"><g><path d="M 415.832031 -601.570312 L 27.722656 -601.570312 L 27.722656 -0.925781 L 255.96875 -0.925781 L 255.96875 -200.523438 L 418.605469 -200.523438 C 617.28125 -200.523438 609.886719 -601.570312 415.832031 -601.570312 Z M 255.042969 -228.246094 L 255.042969 -474.046875 C 225.472656 -474.046875 201.449219 -497.148438 201.449219 -526.71875 C 201.449219 -582.164062 267.054688 -593.253906 302.171875 -564.605469 C 376.097656 -505.46875 375.171875 -231.941406 255.042969 -228.246094 Z M 255.042969 -228.246094 "/></g></g></g></svg>